<?xml version="1.0"?>
<svg xmlns="http://www.w3.org/2000/svg" version="1.1" width="500px" height="500px" viewBox="0 0 200 200" style="overflow:hidden!important;">
  <defs id="SvgjsDefs1007">
    <radialGradient id="SvgjsRadialGradient2907" cx="100" cy="114" r="41" gradientUnits="userSpaceOnUse" class="svga-on-canvas-facehighlight-gradient-single-0">
      <stop id="SvgjsStop2908" stop-opacity="0.5" stop-color="#ffe4d6" offset="0"/>
      <stop id="SvgjsStop2909" stop-opacity="0" stop-color="#f0c7b1" offset="0.9"/>
    </radialGradient>
    <radialGradient id="SvgjsRadialGradient2911" cx="100" cy="54" r="37" gradientUnits="userSpaceOnUse" class="svga-on-canvas-facehighlight-gradient-single-1">
      <stop id="SvgjsStop2912" stop-opacity="0.5" stop-color="#ffe4d6" offset="0"/>
      <stop id="SvgjsStop2913" stop-opacity="0" stop-color="#f0c7b1" offset="0.9"/>
    </radialGradient>
    <linearGradient id="SvgjsLinearGradient3036" x1="100" y1="142" x2="100" y2="139" gradientUnits="userSpaceOnUse" class="svga-on-canvas-mouth-gradient-single-0">
      <stop id="SvgjsStop3037" stop-opacity="1" stop-color="#e8b9a0" offset="0.1"/>
      <stop id="SvgjsStop3038" stop-opacity="1" stop-color="#e1ac8f" offset="1"/>
    </linearGradient>
    <linearGradient id="SvgjsLinearGradient3830" x1="100" y1="171" x2="100" y2="130" gradientUnits="userSpaceOnUse" class="svga-on-canvas-chinshadow-gradient-single-0">
      <stop id="SvgjsStop3831" stop-opacity="0.8" stop-color="#e1ac8f" offset="0"/>
      <stop id="SvgjsStop3832" stop-opacity="1" stop-color="#c27b55" offset="0.7"/>
    </linearGradient>
    <radialGradient id="SvgjsRadialGradient3834" cx="126.275" cy="85.349" r="10.629" gradientTransform="matrix(-1 0 0 1 200 0)" gradientUnits="userSpaceOnUse" class="svga-on-canvas-eyesback-gradient-left-0">
      <stop id="SvgjsStop3835" stop-opacity="1" stop-color="#ffffff" offset="0"/>
      <stop id="SvgjsStop3836" stop-opacity="1" stop-color="#fdfefe" offset="0.544"/>
      <stop id="SvgjsStop3837" stop-opacity="1" stop-color="#f6f8f9" offset="0.74"/>
      <stop id="SvgjsStop3838" stop-opacity="1" stop-color="#eaeff2" offset="0.879"/>
      <stop id="SvgjsStop3839" stop-opacity="1" stop-color="#d9e3e8" offset="0.992"/>
      <stop id="SvgjsStop3840" stop-opacity="1" stop-color="#d8e2e7" offset="1"/>
    </radialGradient>
    <radialGradient id="SvgjsRadialGradient3842" cx="125.875" cy="85.349" r="10.629" gradientUnits="userSpaceOnUse" class="svga-on-canvas-eyesback-gradient-right-0">
      <stop id="SvgjsStop3843" stop-opacity="1" stop-color="#ffffff" offset="0"/>
      <stop id="SvgjsStop3844" stop-opacity="1" stop-color="#fdfefe" offset="0.544"/>
      <stop id="SvgjsStop3845" stop-opacity="1" stop-color="#f6f8f9" offset="0.74"/>
      <stop id="SvgjsStop3846" stop-opacity="1" stop-color="#eaeff2" offset="0.879"/>
      <stop id="SvgjsStop3847" stop-opacity="1" stop-color="#d9e3e8" offset="0.992"/>
      <stop id="SvgjsStop3848" stop-opacity="1" stop-color="#d8e2e7" offset="1"/>
    </radialGradient>
    <radialGradient id="SvgjsRadialGradient3850" cx="126.275" cy="85.349" r="10.629" gradientTransform="matrix(-1 0 0 1 200 0)" gradientUnits="userSpaceOnUse" class="svga-on-canvas-eyesfront-gradient-left-0">
      <stop id="SvgjsStop3851" stop-opacity="1" stop-color="#ffffff" offset="0"/>
      <stop id="SvgjsStop3852" stop-opacity="1" stop-color="#fdfefe" offset="0.544"/>
      <stop id="SvgjsStop3853" stop-opacity="1" stop-color="#f6f8f9" offset="0.74"/>
      <stop id="SvgjsStop3854" stop-opacity="1" stop-color="#eaeff2" offset="0.879"/>
      <stop id="SvgjsStop3855" stop-opacity="1" stop-color="#d9e3e8" offset="0.992"/>
      <stop id="SvgjsStop3856" stop-opacity="1" stop-color="#d8e2e7" offset="1"/>
    </radialGradient>
    <radialGradient id="SvgjsRadialGradient3860" cx="123.715" cy="83.955" fx="135.822" fy="83.989" r="17.219" gradientTransform="matrix(0.9998 0.0206 0.0166 -0.7916 -48.8004 147.8581)" gradientUnits="userSpaceOnUse" class="svga-on-canvas-eyesfront-gradient-left-3">
      <stop id="SvgjsStop3861" stop-opacity="1" stop-color="#e1ac8f" offset="0"/>
      <stop id="SvgjsStop3862" stop-opacity="0.3" stop-color="#e1ac8f" offset="0.7"/>
      <stop id="SvgjsStop3863" stop-opacity="0" stop-color="#f0c7b1" offset="1"/>
    </radialGradient>
    <radialGradient id="SvgjsRadialGradient3865" cx="123.018" cy="104.865" r="27.497" gradientTransform="matrix(-0.9336 -0.3584 -0.3046 0.7935 223.7724 65.7356)" gradientUnits="userSpaceOnUse" class="svga-on-canvas-eyesfront-gradient-left-4">
      <stop id="SvgjsStop3866" stop-opacity="0" stop-color="#000000" offset="0.95"/>
      <stop id="SvgjsStop3867" stop-opacity="0.2" stop-color="#000000" offset="1"/>
    </radialGradient>
    <radialGradient id="SvgjsRadialGradient3871" cx="125.875" cy="85.349" r="10.629" gradientUnits="userSpaceOnUse" class="svga-on-canvas-eyesfront-gradient-right-0">
      <stop id="SvgjsStop3872" stop-opacity="1" stop-color="#ffffff" offset="0"/>
      <stop id="SvgjsStop3873" stop-opacity="1" stop-color="#fdfefe" offset="0.544"/>
      <stop id="SvgjsStop3874" stop-opacity="1" stop-color="#f6f8f9" offset="0.74"/>
      <stop id="SvgjsStop3875" stop-opacity="1" stop-color="#eaeff2" offset="0.879"/>
      <stop id="SvgjsStop3876" stop-opacity="1" stop-color="#d9e3e8" offset="0.992"/>
      <stop id="SvgjsStop3877" stop-opacity="1" stop-color="#d8e2e7" offset="1"/>
    </radialGradient>
    <radialGradient id="SvgjsRadialGradient3881" cx="123.315" cy="83.955" fx="135.422" fy="83.989" r="17.219" gradientTransform="matrix(-0.9998 0.0206 -0.0166 -0.7916 248.0017 147.8663)" gradientUnits="userSpaceOnUse" class="svga-on-canvas-eyesfront-gradient-right-3">
      <stop id="SvgjsStop3882" stop-opacity="1" stop-color="#e1ac8f" offset="0"/>
      <stop id="SvgjsStop3883" stop-opacity="0.3" stop-color="#e1ac8f" offset="0.7"/>
      <stop id="SvgjsStop3884" stop-opacity="0" stop-color="#f0c7b1" offset="1"/>
    </radialGradient>
    <radialGradient id="SvgjsRadialGradient3886" cx="122.617" cy="104.865" r="27.498" gradientTransform="matrix(0.9336 -0.3584 0.3046 0.7935 -23.799 65.5921)" gradientUnits="userSpaceOnUse" class="svga-on-canvas-eyesfront-gradient-right-4">
      <stop id="SvgjsStop3887" stop-opacity="0" stop-color="#000000" offset="0.95"/>
      <stop id="SvgjsStop3888" stop-opacity="0.2" stop-color="#000000" offset="1"/>
    </radialGradient>
    <radialGradient id="SvgjsRadialGradient3893" cx="-568.659" cy="-521.042" r="59.751" gradientTransform="matrix(0.096 -0.0248 0.0245 0.0961 141.2814 119.9893)" gradientUnits="userSpaceOnUse" class="svga-on-canvas-eyesiris-gradient-left-1">
      <stop id="SvgjsStop3894" stop-opacity="1" stop-color="#ffffff" offset="0"/>
      <stop id="SvgjsStop3895" stop-opacity="0" stop-color="#ffffff" offset="1"/>
    </radialGradient>
    <radialGradient id="SvgjsRadialGradient3897" cx="-582.838" cy="-519.099" r="59.745" gradientTransform="matrix(0.0991 8.856319e-004 -0.0011 0.0991 131.1134 135.9855)" gradientUnits="userSpaceOnUse" class="svga-on-canvas-eyesiris-gradient-left-2">
      <stop id="SvgjsStop3898" stop-opacity="1" stop-color="#ffffff" offset="0"/>
      <stop id="SvgjsStop3899" stop-opacity="0" stop-color="#ffffff" offset="1"/>
    </radialGradient>
    <linearGradient id="SvgjsLinearGradient3903" x1="122.67" y1="88.268" x2="123.606" y2="87.152" gradientTransform="matrix(1 0 0 1 -52 0)" gradientUnits="userSpaceOnUse" class="svga-on-canvas-eyesiris-gradient-left-5">
      <stop id="SvgjsStop3904" stop-opacity="1" stop-color="#ffffff" offset="0"/>
      <stop id="SvgjsStop3905" stop-opacity="0" stop-color="#ffffff" offset="1"/>
    </linearGradient>
    <linearGradient id="SvgjsLinearGradient3907" x1="127.212" y1="82.296" x2="126.463" y2="83.189" gradientTransform="matrix(1 0 0 1 -52 0)" gradientUnits="userSpaceOnUse" class="svga-on-canvas-eyesiris-gradient-left-6">
      <stop id="SvgjsStop3908" stop-opacity="1" stop-color="#ffffff" offset="0"/>
      <stop id="SvgjsStop3909" stop-opacity="0" stop-color="#ffffff" offset="1"/>
    </linearGradient>
    <linearGradient id="SvgjsLinearGradient3911" x1="129.636" y1="79.822" x2="127.91" y2="81.879" gradientTransform="matrix(1 0 0 1 -52 0)" gradientUnits="userSpaceOnUse" class="svga-on-canvas-eyesiris-gradient-left-7">
      <stop id="SvgjsStop3912" stop-opacity="1" stop-color="#ffffff" offset="0"/>
      <stop id="SvgjsStop3913" stop-opacity="0" stop-color="#ffffff" offset="1"/>
    </linearGradient>
    <radialGradient id="SvgjsRadialGradient3916" cx="-568.654" cy="-521.042" r="59.752" gradientTransform="matrix(0.096 -0.0248 0.0245 0.0961 193.2804 119.9894)" gradientUnits="userSpaceOnUse" class="svga-on-canvas-eyesiris-gradient-right-1">
      <stop id="SvgjsStop3917" stop-opacity="1" stop-color="#ffffff" offset="0"/>
      <stop id="SvgjsStop3918" stop-opacity="0" stop-color="#ffffff" offset="1"/>
    </radialGradient>
    <radialGradient id="SvgjsRadialGradient3920" cx="-582.833" cy="-519.102" r="59.747" gradientTransform="matrix(0.0991 8.856319e-004 -0.0011 0.0991 183.1126 135.9856)" gradientUnits="userSpaceOnUse" class="svga-on-canvas-eyesiris-gradient-right-2">
      <stop id="SvgjsStop3921" stop-opacity="1" stop-color="#ffffff" offset="0"/>
      <stop id="SvgjsStop3922" stop-opacity="0" stop-color="#ffffff" offset="1"/>
    </radialGradient>
    <linearGradient id="SvgjsLinearGradient3926" x1="122.67" y1="88.268" x2="123.606" y2="87.152" gradientUnits="userSpaceOnUse" class="svga-on-canvas-eyesiris-gradient-right-5">
      <stop id="SvgjsStop3927" stop-opacity="1" stop-color="#ffffff" offset="0"/>
      <stop id="SvgjsStop3928" stop-opacity="0" stop-color="#ffffff" offset="1"/>
    </linearGradient>
    <linearGradient id="SvgjsLinearGradient3930" x1="127.212" y1="82.296" x2="126.463" y2="83.189" gradientUnits="userSpaceOnUse" class="svga-on-canvas-eyesiris-gradient-right-6">
      <stop id="SvgjsStop3931" stop-opacity="1" stop-color="#ffffff" offset="0"/>
      <stop id="SvgjsStop3932" stop-opacity="0" stop-color="#ffffff" offset="1"/>
    </linearGradient>
    <linearGradient id="SvgjsLinearGradient3934" x1="129.636" y1="79.822" x2="127.91" y2="81.879" gradientUnits="userSpaceOnUse" class="svga-on-canvas-eyesiris-gradient-right-7">
      <stop id="SvgjsStop3935" stop-opacity="1" stop-color="#ffffff" offset="0"/>
      <stop id="SvgjsStop3936" stop-opacity="0" stop-color="#ffffff" offset="1"/>
    </linearGradient>
  </defs>
  <g id="svga-group-wrapper">
    <g id="svga-group-backs-single"/>
    <g id="svga-group-humanwrap-move" transform="matrix(1,0,0,1,0,0)">
      <g id="svga-group-humanwrap" transform="matrix(0.8499995000000001,0,0,0.8499995000000001,14.957440929289803,17.120044459050163)">
        <g id="svga-group-hair-back-move" transform="matrix(1,0,0,1,0,0)">
          <g id="svga-group-hair-back" transform="matrix(1,0,0,1,0,0)">
            <path id="SvgjsPath3721" d="M100.5,100.5h-1v-1h1V100.5z" fill="#2a232b" stroke-width="none" opacity="1"/>
          </g>
        </g>
        <g id="svga-group-humanbody-single">
          <path id="SvgjsPath2914" d="M195.417 199.778c-2.196-4.746-8.195-11.779-14.86-13.722 -8.239-2.403-26.837-5.308-33.733-6.923 -5.528-1.296-16.662-11.294-20.564-14.65 -0.7-0.6-1.273-1.839-1.287-2.76 -0.139-10.864 4.195-39.724 4.195-39.724H100 70.833c0 0 4.334 28.859 4.193 39.724 -0.011 0.921-0.587 2.16-1.285 2.76 -3.902 3.356-15.036 13.354-20.564 14.65 -6.897 1.615-25.495 4.619-33.733 7.022 -6.667 1.942-12.664 8.876-14.86 13.622 -3.708 8.008-4.584 22.5-4.584 35h100 100C200 222.278 199.123 207.786 195.417 199.778z" fill="#f0c7b1" stroke-width="none" opacity="1" stroke="none"/>
          <path id="SvgjsPath2915" d="M159.156 184.058c24.342 3.542 34.586 8.708 37.794 50.721H200c0-12.5-0.877-26.992-4.583-35 -2.196-4.746-8.195-11.779-14.86-13.722 -8.239-2.403-26.837-5.308-33.733-6.923 -5.528-1.296-18.242-12.069-21.643-16.35 3.36 4.704 12.791 15.605 21.054 18.46C150.188 182.61 153.48 183.232 159.156 184.058zM53.766 181.244c8.263-2.854 17.693-13.756 21.054-18.46 -3.4 4.28-16.114 15.054-21.643 16.35 -6.896 1.615-25.494 4.619-33.733 7.022 -6.665 1.942-12.664 8.876-14.86 13.622 -3.706 8.008-4.583 22.5-4.583 35h3.05c3.188-41.744 13.475-47.183 37.794-50.721C46.52 183.232 49.813 182.61 53.766 181.244z" fill="#ffe4d6" stroke-width="none" opacity="1" stroke="none"/>
          <path id="SvgjsPath2916" d="M95.646 197.62c0 0-5.074-1.609-7.083-2.379 -10.449-4.009-44.395-6.607-44.395-6.607s35.754 1.419 43.644 2.779c-0.458-4.767-3.017-20.004-3.017-20.004s5.149 16.815 6.409 21.057C91.878 194.734 95.646 197.62 95.646 197.62zM106.445 196.278c-0.089 0.073-0.191 0.168-0.302 0.268C106.256 196.461 106.358 196.372 106.445 196.278zM95.646 197.62c0 0 2.893 2.992 4.347 3.03 1.91 0.051 4.828-2.899 6.151-4.104 -1.265 0.957-4.159 1.391-5.31 1.436C99.504 198.033 95.646 197.62 95.646 197.62zM116.664 190.101c-1.545 0.248-4.386 0.789-4.386 0.789l2.287-14.89c-0.646 3.071-4.474 16.211-8.12 20.278 1.91-1.616 6.158-2.391 8.324-2.704 10.236-1.484 10.232-1.483 41.062-4.94C155.831 188.634 126.76 188.479 116.664 190.101z" fill="#e1ac8f" stroke-width="none" opacity="1" stroke="none"/>
          <path id="SvgjsPath2917" d="M195.417 199.778c-2.196-4.746-8.195-11.779-14.86-13.722 -8.239-2.403-26.837-5.308-33.733-6.923 -5.528-1.296-16.662-11.294-20.564-14.65 -0.7-0.6-1.273-1.839-1.287-2.76 -0.139-10.864 4.195-39.724 4.195-39.724H100 70.833c0 0 4.334 28.859 4.193 39.724 -0.011 0.921-0.587 2.16-1.285 2.76 -3.902 3.356-15.036 13.354-20.564 14.65 -6.897 1.615-25.495 4.619-33.733 7.022 -6.667 1.942-12.664 8.876-14.86 13.622 -3.708 8.008-4.584 22.5-4.584 35h100 100C200 222.278 199.123 207.786 195.417 199.778z" fill="none" stroke="#c27b55" stroke-width="1.5" opacity="1"/>
        </g>
        <g id="svga-group-chinshadow-single">
          <path id="SvgjsPath3829" d="M75.602 162.779c7.126 5.302 15.497 9.087 24.401 9.087 8.902 0 17.269-3.781 24.394-9.08 -0.104-0.358-0.17-0.718-0.175-1.053 -0.088-6.862 1.561-20.607 2.82-30.025 -15.654-1.97-38.431-1.97-54.084 0 1.26 9.419 2.908 23.163 2.819 30.024C75.773 162.063 75.707 162.42 75.602 162.779z" fill="url(#SvgjsLinearGradient3830)" opacity="1"/>
        </g>
        <g id="svga-group-clothes-single">
          <path id="SvgjsPath4049" d="M-3.682 236.192c-2.914-24.293 8.022-47.09 34.496-54.611 7.77-2.208 5.691-3.341 6.867-3.41 -0.039-0.211-0.045-0.2-0.045-0.63h-0.036c0.087-8.03 9.028-6.453 11.587-6.984 10.121-2.158 13.558-12.786 25.115-9.985 0.284 2.437 0.075 5.248-1.371 15.663 10.899 23.466 22.722 21.437 26.925 34.571 3.815-11.746 17.339-13.617 27.306-34.576 -0.655-5.884-2.083-11.033-1.482-15.935l0.057-0.042c7.744-2.583 11.127 0.874 14.21 3.854 9.397 9.083 14.382 3.325 19.085 7.457 1.871 1.659 2.547 3.997 2.547 6.518 21.412 3.11 45.974 9.898 41.089 57.481l0.096 0.104C181.094 235.667 57.546 241.095-3.682 236.192z" fill="#152c5e" stroke-width="none" opacity="1" stroke="none"/>
          <path id="SvgjsPath4050" d="M100.268 209.685c4.229-10.638 16.946-13.132 26.543-32.755 0.098-0.108 0.347-0.591 0.656-1.237 -0.164-1.826-0.372-3.747-1.213-5.757 -0.522-3.35-0.939-6.489-0.587-9.535 1.974 0.578 3.842 1.262 5.12 2.66 1.882 2.052 0.455 5.609-1.346 9.042C126.063 186.844 117.594 197.493 100.268 209.685zM169.282 198.859c2.938 10.376 4.895 26.928 2.544 37.445 1.962-0.045 2.686-0.097 4.506-0.138C177.146 225.12 175.154 207.48 169.282 198.859zM137.604 200.735c-12.805 7.48-25.687 10.358-37.321 20.291 -11.64-9.904-24.647-11.637-37.453-19.108 -5.87-2.36-14.874-10.699-20.377-16.572 17.313 26.284 29.706 18.823 57.434 36.538 27.736-17.715 40.205-11.692 57.516-37.974C151.9 189.782 143.476 198.39 137.604 200.735zM99.81 210.936c-4.238-10.644-16.459-14.383-26.056-34.006 -0.093-0.108-0.343-0.591-0.652-1.237 0.156-1.826-0.262-3.841 0.586-5.857 0.521-3.358 0.748-6.092 0.393-9.132 -1.969 0.574-3.025 0.959-4.303 2.357 -1.88 2.052-0.453 5.609 1.347 9.042C74.502 186.844 82.479 198.74 99.81 210.936zM27.163 197.688c-4.305 9.396-4.34 27.432-3.528 38.479 1.821 0.041 2.548 0.093 4.506 0.138C25.791 225.787 26.379 208.26 27.163 197.688zM99.888 212.964c16.389-4.909 33.813-13.894 48.305-35.847 -13.084 17.643-32.525 28.063-47.926 34.455 -15.89-5.762-34.915-17.221-46.006-32.635C67.257 200.226 83.508 208.055 99.888 212.964z" fill="#0a1f4f" stroke-width="none" opacity="1" stroke="none"/>
          <path id="SvgjsPath4051" d="M202.762 235.667c-0.115 0-0.256 0.001-0.374 0.001 -0.427-48.615-27.497-50.574-42.48-53.725 -2.345 0-3.563-6.505-5.288-8.24 -1.467-1.475-12.769-1.475-16.348-11.169 0.583 0.513 1.131 1.052 1.674 1.573 9.397 9.083 14.382 3.325 19.085 7.457 1.871 1.659 2.547 3.997 2.547 6.518 21.412 3.11 45.974 9.898 41.089 57.481L202.762 235.667zM-3.968 236.84c0.114 0 0.255 0.001 0.376 0.001 4.759-38.632 16.029-50.811 43.543-55.364 3.451-1.313 1.634-3.81 3.362-5.544 1.467-1.468 9.627-1.5 20.924-13.389 -0.582 0.513-3.075 1.042-3.615 1.563 -9.398 9.083-16.485 6.51-19.088 7.457 -3.209 1.188-3.707 4.028-3.707 6.546 -21.414 3.111-44.161 14.974-41.702 58.626L-3.968 236.84z" fill="#233b6d" stroke-width="none" opacity="1" stroke="none"/>
          <path id="SvgjsPath4052" d="M161.69 177.978c0-9.858-9.265-7.895-13.529-8.812 -9.409-2.02-9.113-12.916-22.582-8.985 -0.574 4.657 0.516 8.738 1.473 15.997 -9.877 20.755-23.576 23.093-27.196 34.245 -3.957-12.38-16.045-11.134-26.81-34.171 1.498-10.838 1.648-13.354 1.36-15.774 -10.271-2.349-12.588 4.32-21.876 8.776 -5.637 2.642-7.229 0.263-12.067 2.633 -2.007 0.968-3.018 3.609-2.946 5.767 -0.013 0.01 0 0.01 0 0.01 0 0.139 0 0.267 0.023 0.396 -1.175 0.082 0.546 0.074-7.323 1.346 -25.363 4.1-36.61 25.534-34.005 56.906 11.89 0 1.011 4.382 183.147-0.077 8.456-0.214 22.799-0.447 23.402-0.447C208.321 189.265 184.836 181.568 161.69 177.978zM-3.624 236.057c2.579-36.004 8.018-50.026 41.046-57.329 17.978 29.839 39.98 25.499 62.232 42.189 -20.166-16.771-41.302-14.549-61.622-42.583 -0.228-2.354 1-4.943 3.535-5.959 1.796-0.702 3.72-0.498 5.6-0.488 7.087 0.054 12.546-5.502 17.793-9.578 2.499-1.67 6.22-1.752 9.2-1.292 0.231 3.874-1.262 9.721-1.762 13.845 -1.042-2.295-2.029-4.664-3.015-7.022 12.47 36.624 24.903 28.334 30.461 43.525 -1.177-0.327-21.014-7.468-36.822-23.188 -3.358-3.325-10.011-10.656-10.516-11.34 19.573 26.51 32.079 27.86 47.391 34.691 0 0.01 0.021 0.035 0.021 0.048 0.012 0.036 0.068 0.221 0.086 0.256 0.074-0.033 0.158-0.07 0.239-0.091 0.026-0.022 0.047-0.033 0.08-0.033 2.122-1.043 16.065-5.902 26.681-13.2 10.927-7.517 23.39-23.821 22.451-22.64 -18.253 18.573-21.075 22.785-49.212 35.67 -0.027 0-0.048-0.01-0.069-0.021 -0.022-0.131-0.064-0.257-0.107-0.387 0.011-0.062 0.032-0.121 0.054-0.178 4.948-13.579 19.476-8.33 31.51-45.554 -1.232 3.216-2.527 6.382-3.979 9.486 -0.457-5.455-2.042-9.756-1.865-14.247 2.084-0.693 7.742-1.022 9.308 0.542 6.529 5.586 7.059 9.677 17.696 9.677 3.411 0.02 7.871 0.45 8.375 6.708 -0.627 0.922-5.291 6.431-9.703 10.809 -15.438 15.368-29.249 15.664-50.619 32.007 0.521 0 1.605-1.131 2.029-1.418 16.712-11.864 28.719-11.677 44.085-24.249 7.082-5.785 13.897-15.044 14.63-16.222 0.022 0.013 0.059 0.013 0.079 0.013 28.198 4.853 42.321 15.462 40.764 57.069C76.043 234.783 58.884 238.145-3.624 236.057z" fill="#000f30" stroke-width="none" opacity="1" stroke="none"/>
        </g>
        <g id="svga-group-head" transform="matrix(1,0,0,1,0,0)">
          <g id="svga-group-ears-left-move" transform="matrix(1,0,0,1,0,0)">
            <g id="svga-group-ears-left" transform="matrix(1,0,0,1,0,0)">
              <path id="SvgjsPath2927" d="M45.671 84.344c-1.485-2.462-6.327-9.199-10.031-8.254 -3.012 0.772-2.973 4.971-3.206 7.455 -0.34 3.644-0.464 9.992 0.525 12.568 0.951 2.473 3.96 7.252 5.828 9.075 2.299 2.235 5.97 9.358 6.422 10.097 0.711 1.168 2.137 2.84 4.325 2.708 3.071-0.185 5.724-3.087 5.965-4.485C56.8 105.918 49.536 90.75 45.671 84.344z" fill="#f0c7b1" stroke="#c27b55" stroke-width="1.5" opacity="1"/>
              <path id="SvgjsPath2928" d="M44.2 99.341c-0.143-0.563 0.007-1.513 0.154-2.429 0.133-0.835 0.258-1.624 0.182-2.182 -0.289-2.09-1.915-6.06-2.976-8.212 -1.223-2.476-3.199-5.595-5.679-6.399 -1.024-0.333-1.699 0.065-2.089 0.468 -0.288 0.296-0.353 0.645-0.259 0.687 0.095 0.041 0.307-0.248 0.617-0.519 0.254-0.222-0.508-0.04 0 0 -0.205 1.04-0.865 6.302-0.41 10.143 0.358 3.022 1.05 5.279 1.263 5.617 0.031 0.356 0.083 0.705 0.16 1.043 1.002 4.41 7.518 10.177 9.034 11.82 0.28 0.303 0.574 0.483 0.646 0.409s-0.101-0.373-0.379-0.678c-1.498-1.632-7.971-7.381-8.939-11.635 -1.027-4.514 3.912-11.207 4.699-12.623 0.401 0.665 0.742 1.303 1.004 1.835 0.207 0.417 0.434 0.906 0.67 1.435 -0.463 0.738-5.118 6.127-3.934 10.441 0.438 1.591 3.822 3.642 5.131 4.203 0.72 0.31 0.99 0.772 1.304 1.306 0.364 0.624 0.033 2.229 1.23 2.739 0.244 0.104 0.464 0.146 0.659 0.146 0.338 0 0.594-0.13 0.783-0.284 0.02 0.271 0.019 0.619 0.009 0.941 -0.012 0.418 0.047 0.609 0.148 0.617 0.103 0.009 0.21-0.174 0.223-0.587 0.017-0.51 0.014-1.141-0.077-1.444 -0.269-0.889-1.088-1.894-1.957-2.957C44.563 102.197 44.422 100.213 44.2 99.341zM34.969 95.432c-2.348-6.923 1.283-13.229 1.81-14.179 1.012 0.399 2.562 2.193 3.221 3.235C39.52 85.321 35.067 90.775 34.969 95.432zM45.772 106.464c-1.084-0.462-0.706-1.984-1.056-2.584 -0.318-0.542-0.646-1.102-1.479-1.46 -0.18-0.078-0.379-0.196-0.583-0.332 -2.682-6.075 0.293-8.73 1.039-9.273 0.229 0.742 0.399 1.423 0.476 1.97 0.068 0.5-0.059 1.298-0.181 2.068 -0.153 0.955-0.31 1.944-0.147 2.584 0.244 0.953 0.411 2.97 1.291 4.048 0.781 0.956 1.583 1.942 1.857 2.746C46.871 106.391 46.5 106.775 45.772 106.464z" fill="#c27b55" stroke-width="none" opacity="1" stroke="none"/>
            </g>
          </g>
          <g id="svga-group-ears-right-move" transform="matrix(1,0,0,1,0,0)">
            <g id="svga-group-ears-right" transform="matrix(1,0,0,1,0,0)">
              <path id="SvgjsPath2929" d="M154.066 84.344c1.486-2.462 6.328-9.199 10.031-8.254 3.012 0.772 2.973 4.971 3.207 7.455 0.34 3.644 0.463 9.992-0.525 12.568 -0.951 2.473-3.961 7.252-5.828 9.075 -2.299 2.235-5.971 9.358-6.422 10.097 -0.711 1.168-2.137 2.84-4.326 2.708 -3.07-0.185-5.723-3.087-5.965-4.485C142.938 105.918 150.203 90.75 154.066 84.344z" fill="#f0c7b1" stroke="#c27b55" stroke-width="1.5" opacity="1"/>
              <path id="SvgjsPath2930" d="M154.322 103.243c-0.869 1.063-1.688 2.068-1.957 2.957 -0.092 0.304-0.094 0.935-0.078 1.444 0.014 0.413 0.121 0.596 0.225 0.587 0.102-0.008 0.16-0.199 0.148-0.617 -0.01-0.322-0.012-0.67 0.008-0.941 0.189 0.154 0.445 0.284 0.783 0.284 0.195 0 0.416-0.042 0.66-0.146 1.195-0.511 0.865-2.116 1.229-2.739 0.314-0.534 0.584-0.997 1.305-1.306 1.309-0.561 4.693-2.611 5.131-4.203 1.184-4.314-3.471-9.704-3.934-10.441 0.234-0.529 0.463-1.018 0.668-1.435 0.264-0.532 0.604-1.171 1.006-1.835 0.787 1.416 5.725 8.108 4.699 12.623 -0.969 4.254-7.441 10.003-8.939 11.635 -0.279 0.305-0.453 0.604-0.381 0.678 0.074 0.074 0.367-0.106 0.646-0.409 1.516-1.643 8.031-7.41 9.033-11.82 0.078-0.338 0.131-0.687 0.162-1.043 0.211-0.337 0.904-2.594 1.262-5.617 0.455-3.841-0.205-9.103-0.41-10.143 0.508-0.04-0.254-0.222 0 0 0.311 0.271 0.523 0.56 0.617 0.519 0.094-0.042 0.029-0.39-0.258-0.687 -0.391-0.403-1.066-0.801-2.09-0.468 -2.48 0.804-4.457 3.923-5.68 6.399 -1.061 2.152-2.686 6.122-2.975 8.212 -0.076 0.558 0.049 1.347 0.182 2.182 0.146 0.916 0.297 1.866 0.154 2.429C155.316 100.213 155.176 102.197 154.322 103.243zM159.738 84.488c0.66-1.042 2.209-2.835 3.221-3.235 0.527 0.95 4.158 7.256 1.811 14.179C164.672 90.775 160.219 85.321 159.738 84.488zM152.75 106.229c0.273-0.804 1.076-1.79 1.857-2.746 0.879-1.078 1.047-3.095 1.291-4.048 0.162-0.64 0.006-1.629-0.146-2.584 -0.123-0.77-0.25-1.568-0.182-2.068 0.076-0.547 0.246-1.228 0.475-1.97 0.746 0.543 3.721 3.199 1.039 9.273 -0.203 0.136-0.402 0.254-0.584 0.332 -0.832 0.358-1.16 0.918-1.479 1.46 -0.35 0.6 0.029 2.123-1.055 2.584C153.238 106.775 152.867 106.391 152.75 106.229z" fill="#c27b55" stroke-width="none" opacity="1" stroke="none"/>
            </g>
          </g>
          <g id="svga-group-faceshape-wrap" transform="matrix(1,0,0,1,0,0)">
            <g id="svga-group-faceshape-single">
              <path id="SvgjsPath3826" d="M100.002 0.867C66.381 0.813 39.186 28.343 39.134 62.366c-0.008 5.403 0.669 10.645 1.953 15.641l0.004 0c0.011 0.054 8.713 39.241 14.519 51.175 6.073 12.487 23.814 32.685 44.392 32.685 20.582 0 38.32-20.197 44.392-32.685 5.805-11.935 14.507-51.122 14.519-51.175l0.005 0c1.283-4.997 1.961-10.238 1.952-15.641C160.819 28.343 133.623 0.813 100.002 0.867z" fill="#f0c7b1" stroke-width="none" opacity="1"/>
              <path id="SvgjsPath3827" d="M120.754 4.512c21.441 9.489 36.411 31.135 36.45 56.363 0.008 5.403-0.669 10.645-1.953 15.641l-0.005 0c-0.011 0.054-8.713 39.24-14.519 51.177 -5.709 11.738-21.608 32.469-40.725 32.469s-35.016-20.73-40.725-32.469c-5.806-11.937-14.507-51.123-14.519-51.177l-0.004 0c-1.284-4.997-1.962-10.238-1.953-15.641 0.038-25.229 15.008-46.874 36.45-56.363 -23.386 8.55-40.076 31.208-40.117 57.854 -0.008 5.403 0.669 10.645 1.953 15.641l0.004 0c0.011 0.054 8.713 39.241 14.519 51.175 6.073 12.487 23.814 32.685 44.392 32.685 20.579 0 38.319-20.197 44.392-32.685 5.805-11.935 14.507-51.122 14.519-51.175l0.005 0c1.283-4.997 1.961-10.238 1.952-15.641C160.83 35.72 144.14 13.062 120.754 4.512z" fill="#e8b9a0" stroke-width="none" opacity="1"/>
              <path id="SvgjsPath3828" d="M100.002 0.867C66.381 0.813 39.186 28.343 39.134 62.366c-0.008 5.403 0.669 10.645 1.953 15.641l0.004 0c0.011 0.054 8.713 39.241 14.519 51.175 6.073 12.487 23.814 32.685 44.392 32.685 20.582 0 38.32-20.197 44.392-32.685 5.805-11.935 14.507-51.122 14.519-51.175l0.005 0c1.283-4.997 1.961-10.238 1.952-15.641C160.819 28.343 133.623 0.813 100.002 0.867z" fill="none" stroke="#c27b55" stroke-width="1.5" opacity="1"/>
            </g>
          </g>
          <g id="svga-group-mouth-single-move" transform="matrix(1,0,0,1,0,0)">
            <g id="svga-group-mouth-single" transform="matrix(1,0,0,1,0,0)">
              <path id="SvgjsPath3035" d="M96.227 139.237l8.297-0.207C103.563 143.5 96.884 142.858 96.227 139.237z" fill="url(#SvgjsLinearGradient3036)" opacity="1"/>
              <path id="SvgjsPath3039" d="M96.343 139.52c-0.371-0.05-0.315-0.579 0.08-0.542 0.043 0.006 4.308 0.546 7.878-0.215 0.386-0.075 0.5 0.455 0.13 0.534C101.634 139.895 98.015 139.755 96.343 139.52zM100.083 135.95c-1.503 0-2.96-0.521-4.424-0.776 -1.64-0.287-3.274-0.041-4.915 0.104 -1.676 0.149-5.333-0.013-6.365-0.666 -0.578-0.367-0.47-1.221 0.181-1.449 0.614-0.22 1.571 0.236 2.191 0.347 2.872 0.515 4.384-0.034 6.902-0.118 3.851-0.116 4.26 1.501 9.064 0.53 5.165-1.044 7.491-0.254 11.197-1.37 0.508-0.154 1.112-0.56 1.645-0.286 0.615 0.318 0.585 1.185-0.049 1.464 -3.406 1.502-7.174 0.895-10.955 1.526C103.073 135.502 101.596 135.95 100.083 135.95z" fill="#c27b55" stroke-width="none" opacity="1" stroke="none"/>
            </g>
          </g>
          <g id="svga-group-eyes-left-move" transform="matrix(1,0,0,1,0,0)">
            <g id="svga-group-eyes-left" transform="matrix(1,0,0,1,0,0)">
              <g id="svga-group-eyesback-left">
                <path id="SvgjsPath3833" d="M62.381 89.681c2.428 2.331 6.769 2.584 13.004 2.584 6.229 0 9.858-1.361 11.353-4.016 1.805-3.206-3.878-9.816-12.912-9.816C68.021 78.433 55.521 83.098 62.381 89.681z" fill="url(#SvgjsRadialGradient3834)" opacity="1"/>
              </g>
              <g id="svga-group-eyesiriswrapper-left" transform="matrix(1,0,0,1,0.5,1.5)">
                <g id="svga-group-eyesiriscontrol-left" transform="matrix(1,0,0,1,0,0)">
                  <g id="svga-group-eyesiris-left" transform="matrix(1,0,0,1,0,0)">
                    <path id="SvgjsPath3973" d="M79.788 85.588c-0.869 3.192-4.162 5.073-7.361 4.196 -3.197-0.876-5.084-4.178-4.214-7.371 0.869-3.195 4.168-5.076 7.365-4.198C78.772 79.09 80.659 82.392 79.788 85.588z" fill="#1d1e21" stroke="#000000" stroke-width="0.5" opacity="1"/>
                    <path id="SvgjsPath3974" d="M78.855 85.662c-0.849 2.452-3.407 3.881-5.899 3.199 -2.3-0.631-3.752-2.838-3.563-5.171 0.853-0.067 1.787-0.087 2.756-0.04 -0.01 0.033-0.027 0.062-0.036 0.096 -0.306 1.125 0.407 2.305 1.592 2.63 1.189 0.326 2.401-0.326 2.707-1.451 0.039-0.147 0.06-0.294 0.065-0.439C77.29 84.782 78.088 85.165 78.855 85.662z" fill="#2f3030" stroke-width="none" opacity="1" stroke="none"/>
                    <path id="SvgjsPath3975" d="M74.813 82.21c-1.203-0.344-2.429 0.342-2.739 1.54 -0.311 1.191 0.412 2.438 1.614 2.783 1.204 0.345 2.43-0.342 2.741-1.534C76.742 83.801 76.016 82.555 74.813 82.21zM75.075 86.442c-0.5 0.156-1.017-0.051-1.154-0.462 -0.133-0.411 0.163-0.867 0.667-1.019 0.503-0.156 1.019 0.051 1.157 0.459C75.881 85.831 75.582 86.287 75.075 86.442z" fill="#000000" stroke-width="none" opacity="0.9"/>
                    <path id="SvgjsPath3976" d="M70.811 87.159c-0.37 0.222-0.922 0.023-1.238-0.447 -0.316-0.466-0.269-1.024 0.102-1.247 0.368-0.219 0.925-0.021 1.239 0.446C71.226 86.378 71.181 86.938 70.811 87.159z" fill="#ffffff" stroke-width="none" opacity="0.6"/>
                    <path id="SvgjsPath3977" d="M78.71 83.74c-0.846 0.507-2.117 0.051-2.837-1.02 -0.72-1.072-0.612-2.352 0.234-2.857 0.844-0.509 2.118-0.053 2.834 1.019C79.66 81.954 79.556 83.232 78.71 83.74z" fill="#ffffff" stroke-width="none" opacity="0.8"/>
                  </g>
                </g>
              </g>
              <g id="svga-group-eyesfront-left">
                <path id="SvgjsPath3858" d="M54.8 79.995c0 13.807 8.507 30.004 19 30.004s19-11.193 19-25 -8.507-25-19-25S54.8 66.188 54.8 79.995zM62.381 89.681c-6.859-6.583 5.641-11.248 11.444-11.248 9.034 0 14.717 6.61 12.912 9.816 -1.494 2.654-5.123 4.016-11.353 4.016C69.149 92.265 64.809 92.011 62.381 89.681z" fill="#f0c7b1" stroke-width="none" opacity="1"/>
                <path id="SvgjsPath3859" d="M58.697 84.55c-0.075 7.456 8.647 13.464 18.038 13.428 9.389-0.043 16.987-6.116 16.962-13.573 -0.023-7.456-7.647-13.465-17.04-13.426C67.265 71.021 58.799 74.35 58.697 84.55zM73.825 78.633c9.034 0 14.718 6.542 12.912 9.716 -1.494 2.627-5.123 3.975-11.353 3.975 -6.235 0-10.576-0.251-13.005-2.558C55.521 83.25 68.021 78.633 73.825 78.633z" fill="url(#SvgjsRadialGradient3860)" opacity="1"/>
                <path id="SvgjsPath3864" d="M62.381 89.681c2.428 2.331 6.769 2.584 13.004 2.584 6.229 0 9.858-1.361 11.353-4.016 1.805-3.206-3.878-9.816-12.912-9.816C68.021 78.433 55.521 83.098 62.381 89.681z" fill="url(#SvgjsRadialGradient3865)" opacity="1"/>
                <path id="SvgjsPath3868" d="M89.188 82.843c0.345-0.344-4.745-7.529-13.379-7.832 -9.13-0.319-16.789 6.017-16.789 6.017s8.302-6.009 16.569-5.565C85.2 75.98 88.916 83.114 89.188 82.843z" fill="#c27b55" stroke-width="none" opacity="1"/>
                <path id="SvgjsPath3869" d="M86.479 88.878l0.335-2.293c-3.319-8.705-15.518-11.145-25.718-2.11 -0.359 0.462-0.768 0.821-0.468 1.832l2.711 4.484c-2.466-2.355-3.742-4.143-4.917-5.817l-0.952-0.498c12.896-12.359 27.1-9.455 31.717 1.537l-1.12-0.167L86.479 88.878zM82.57 91.345c-4.308 0.56-7.537 1.078-13.275 0.76C72.953 92.963 78.842 92.698 82.57 91.345z" fill="#000000" stroke-width="none" opacity="1"/>
              </g>
            </g>
          </g>
          <g id="svga-group-eyes-right-move" transform="matrix(1,0,0,1,0,0)">
            <g id="svga-group-eyes-right" transform="matrix(1,0,0,1,0,0)">
              <g id="svga-group-eyesback-right">
                <path id="SvgjsPath3841" d="M137.22 89.681c-2.428 2.331-6.769 2.584-13.004 2.584 -6.229 0-9.858-1.361-11.353-4.016 -1.805-3.206 3.878-9.816 12.912-9.816C131.579 78.433 144.079 83.098 137.22 89.681z" fill="url(#SvgjsRadialGradient3842)" opacity="1"/>
              </g>
              <g id="svga-group-eyesiriswrapper-right" transform="matrix(1,0,0,1,-0.5,1.5)">
                <g id="svga-group-eyesiriscontrol-right" transform="matrix(1,0,0,1,0,0)">
                  <g id="svga-group-eyesiris-right" transform="matrix(1,0,0,1,0,0)">
                    <path id="SvgjsPath3978" d="M131.788 85.588c-0.869 3.192-4.162 5.073-7.362 4.196 -3.196-0.876-5.084-4.178-4.214-7.371 0.869-3.195 4.169-5.076 7.365-4.198C130.772 79.09 132.658 82.392 131.788 85.588z" fill="#1d1e21" stroke="#000000" stroke-width="0.5" opacity="1"/>
                    <path id="SvgjsPath3979" d="M130.855 85.662c-0.849 2.452-3.408 3.881-5.899 3.199 -2.3-0.631-3.753-2.838-3.563-5.171 0.854-0.067 1.787-0.087 2.756-0.04 -0.01 0.033-0.027 0.062-0.036 0.096 -0.306 1.125 0.407 2.305 1.593 2.63 1.189 0.326 2.401-0.326 2.707-1.451 0.038-0.147 0.06-0.294 0.065-0.439C129.29 84.782 130.089 85.165 130.855 85.662z" fill="#2f3030" stroke-width="none" opacity="1" stroke="none"/>
                    <path id="SvgjsPath3980" d="M126.813 82.21c-1.202-0.344-2.429 0.342-2.738 1.54 -0.312 1.191 0.412 2.438 1.613 2.783 1.204 0.345 2.431-0.342 2.742-1.534C128.741 83.801 128.016 82.555 126.813 82.21zM127.075 86.442c-0.5 0.156-1.018-0.051-1.154-0.462 -0.133-0.411 0.163-0.867 0.667-1.019 0.503-0.156 1.019 0.051 1.157 0.459C127.881 85.831 127.582 86.287 127.075 86.442z" fill="#000000" stroke-width="none" opacity="0.9"/>
                    <path id="SvgjsPath3981" d="M122.812 87.159c-0.37 0.222-0.923 0.023-1.238-0.447 -0.316-0.466-0.27-1.024 0.102-1.247 0.367-0.219 0.926-0.021 1.239 0.446C123.227 86.378 123.181 86.938 122.812 87.159z" fill="#ffffff" stroke-width="none" opacity="0.6"/>
                    <path id="SvgjsPath3982" d="M130.71 83.74c-0.846 0.507-2.116 0.051-2.837-1.02 -0.72-1.072-0.612-2.352 0.234-2.857 0.845-0.509 2.117-0.053 2.834 1.019C131.66 81.954 131.557 83.232 130.71 83.74z" fill="#ffffff" stroke-width="none" opacity="0.8"/>
                  </g>
                </g>
              </g>
              <g id="svga-group-eyesfront-right">
                <path id="SvgjsPath3879" d="M125.801 59.999c-10.493 0-19 11.193-19 25s8.507 25 19 25 19-15.513 19-29.319S136.294 59.999 125.801 59.999zM124.216 92.265c-6.229 0-9.858-1.361-11.353-4.016 -1.805-3.206 3.878-9.816 12.912-9.816 5.804 0 18.304 4.665 11.444 11.248C134.792 92.011 130.451 92.265 124.216 92.265z" fill="#f0c7b1" stroke-width="none" opacity="1"/>
                <path id="SvgjsPath3880" d="M122.943 70.979c-9.393-0.039-17.017 5.971-17.04 13.426 -0.025 7.458 7.573 13.53 16.962 13.573 9.391 0.037 18.113-5.972 18.038-13.428C140.802 74.35 132.336 71.021 122.943 70.979zM137.221 89.766c-2.429 2.307-6.77 2.558-13.005 2.558 -6.229 0-9.858-1.348-11.353-3.975 -1.806-3.173 3.878-9.716 12.912-9.716C131.579 78.633 144.08 83.25 137.221 89.766z" fill="url(#SvgjsRadialGradient3881)" opacity="1"/>
                <path id="SvgjsPath3885" d="M137.22 89.681c-2.428 2.331-6.769 2.584-13.004 2.584 -6.229 0-9.858-1.361-11.353-4.016 -1.805-3.206 3.878-9.816 12.912-9.816C131.579 78.433 144.079 83.098 137.22 89.681z" fill="url(#SvgjsRadialGradient3886)" opacity="1"/>
                <path id="SvgjsPath3889" d="M110.413 82.843c-0.345-0.344 4.745-7.529 13.379-7.832 9.13-0.319 16.789 6.017 16.789 6.017s-8.302-6.009-16.569-5.565C114.4 75.98 110.685 83.114 110.413 82.843z" fill="#c27b55" stroke-width="none" opacity="1"/>
                <path id="SvgjsPath3890" d="M111.533 85.845l-1.12 0.167c4.617-10.991 18.82-13.896 31.717-1.537l-0.952 0.498c-1.175 1.674-2.451 3.462-4.917 5.817l2.711-4.484c0.3-1.01-0.108-1.37-0.468-1.832 -10.2-9.035-22.398-6.595-25.718 2.11l0.335 2.293L111.533 85.845zM130.306 92.104c-5.738 0.318-8.968-0.2-13.275-0.76C120.759 92.698 126.647 92.963 130.306 92.104z" fill="#000000" stroke-width="none" opacity="1"/>
              </g>
            </g>
          </g>
          <g id="svga-group-facehighlight-single">
            <path id="SvgjsPath2906" d="M141 113.974c0.035 22.622-18.292 40.994-40.938 41.025 -22.642 0.037-41.028-18.273-41.063-40.9 -0.035-22.62 18.292-41.064 40.937-41.1C122.579 72.964 140.967 91.349 141 113.974z" fill="url(#SvgjsRadialGradient2907)" opacity="1"/>
            <path id="SvgjsPath2910" d="M137.5 53.999c0 20.711-16.789 37.5-37.499 37.5 -20.711 0-37.501-16.789-37.501-37.5s16.79-37.5 37.501-37.5C120.711 16.499 137.5 33.288 137.5 53.999z" fill="url(#SvgjsRadialGradient2911)" opacity="1"/>
          </g>
          <g id="svga-group-eyebrows-left-move" transform="matrix(1,0,0,1,0,0)">
            <g id="svga-group-eyebrows-left-rotate" transform="matrix(1,0,0,1,0,0)">
              <g id="svga-group-eyebrows-left" transform="matrix(1,0,0,1,0,0)">
                <path id="SvgjsPath3991" d="M52.488 73.87c7.475-9.383 20.338-7.822 30.878-6.314 2.681 0.384 5.441 0.672 8.07 1.336 1.884 0.475 3.365 2.622 1.851 4.356 -0.708 0.825-2.253 0.672-3.207 0.652C77.459 73.645 63.193 66.387 52.488 73.87z" fill="#2a232b" stroke-width="none" opacity="1"/>
              </g>
            </g>
          </g>
          <g id="svga-group-eyebrows-right-move" transform="matrix(1,0,0,1,0,0)">
            <g id="svga-group-eyebrows-right-rotate" transform="matrix(1,0,0,1,0,0)">
              <g id="svga-group-eyebrows-right" transform="matrix(1,0,0,1,0,0)">
                <path id="SvgjsPath3992" d="M147.577 73.49c-2.164-1.448-4.454-2.47-7.043-2.889 -9.497-1.54-27.586 4.79-32.341 3.45 -2.912-0.822-2.323-3.739-1.035-4.458 0.775-0.433 0.99-0.422 7.909-1.612C126.824 65.961 139.988 64.355 147.577 73.49z" fill="#2a232b" stroke-width="none" opacity="1"/>
              </g>
            </g>
          </g>
          <g id="svga-group-nose-single-move" transform="matrix(1,0,0,1,0,0)">
            <g id="svga-group-nose-single" transform="matrix(1,0,0,1,0,0)">
              <path id="SvgjsPath3044" d="M91.115 115.499c-0.878 2.064 5.934 4.292 8.519 4.429 2.8 0.147 10.646-2.9 9.316-4.992 -1.399-2.195-6.643-0.286-8.906-0.286C97.792 114.649 92.291 112.745 91.115 115.499z" fill="#e1ac8f" stroke-width="none" opacity="1" stroke="none"/>
              <path id="SvgjsPath3045" d="M101.857 117.058c-0.23-0.759 1.876-1.584 2.657-1.694 1.101-0.16 3.36 0.802 3.158 1.592 -0.184 0.698-2.148-0.533-2.86-0.429C104.078 116.634 102.075 117.769 101.857 117.058zM94.974 116.811c0.968 0 2.404 0.623 2.668 0.074 0.315-0.655-2.139-1.461-2.86-1.372 -0.596 0.07-2.733 1.315-2.439 1.839C92.617 117.833 93.698 116.811 94.974 116.811z" fill="#c27b55" stroke-width="none" opacity="1" stroke="none"/>
              <path id="SvgjsPath3046" d="M100.089 111.999c0.607 0 1.742-0.74 1.792-2.23 0.201-6.008-0.956-23.833-1.792-23.77 -0.78 0.059-2.267 17.637-1.948 23.77C98.22 111.271 99.404 111.999 100.089 111.999z" fill="#fff5ef" stroke-width="none" opacity="0.2" stroke="none"/>
            </g>
          </g>
          <g id="svga-group-beardwrap" transform="matrix(1,0,0,1,0,0)">
            <g id="svga-group-beard-single-move" transform="matrix(1,0,0,1,0,0)">
              <g id="svga-group-beard-single" transform="matrix(1,0,0,1,0,0)">
                <path id="SvgjsPath3766" d="M100,18.13L100,18.13L100,18.13L100,18.13z" fill="#2a232b" stroke-width="none" opacity="1"/>
              </g>
            </g>
          </g>
          <g id="svga-group-mustache-single-move" transform="matrix(1,0,0,1,0,0)">
            <g id="svga-group-mustache-single" transform="matrix(1,0,0,1,0,0)">
              <path id="SvgjsPath3733" d="M100,18.13L100,18.13L100,18.13L100,18.13z" fill="#2a232b" stroke-width="none" opacity="1"/>
            </g>
          </g>
          <g id="svga-group-hair-front" transform="matrix(1,0,0,1,0,0)">
            <path id="SvgjsPath3723" d="M152.176 96.021c-4.33-11.451-2.396-20.042-3.227-37.21 -1.283-26.428-7.483-23.179-21.749-24.214C105.156 33 97.497 22.794 81.063 22.794c-8.887 0-19.24 4.048-27.173 11.001 -6.378 43.485 2.638 39.87-6.744 61.845 -5.953-6.247-6.721-15.865-11.134-28.495 -3.519-10.451-2.658-11.011-6.527-16.049 2.484 0.449 2.734 0.429 3.842 0.429 -1.97-4.306-4.479-11.951-5.429-15.273 2.329-1.116 4.839-3.909 6.47-5.919 -0.931-2.128-1.646-4.554-2.079-6.625 0.077-0.026 0.438-0.16 0.438-0.16l0.004-0.017c5.681-2.417 6.84-15.944 10.785-19.389 1.941-1.814 3.806-2.531 5.534-3.446 0.204-1.895 0.295-2.277 0.575-3.63 9.402-2.521 12.254-1.199 25.53-4.893 4.564-1.27 7.709-2.153 17.317-1.75 3.525 1.779 16.06 10.479 25.484 1.602 7.254 4.527 13.574 5.105 22.624 10.252 15.179 8.89 17.244 15.147 16.352 29.56 10.493 13.965 8.167 30.567 3.577 47.23C157.639 89.383 154.886 92.761 152.176 96.021z" fill="#2a232b" stroke-width="none" opacity="1"/>
            <path id="SvgjsPath3724" d="M152 82c-1-8 3-15 4-22 -1 2-3 3-3 5 0-7 3-13 2-20 -1 2-2 3-4 4 3-7 0-15-5-21 1 3 2 5 2 8 -6-9-20-10-30-15 2 3 6 5 9 7 -14-5-27-11-40-17 2.206 2.206 3.875 6.024 6.589 7.499 1.143 0.163 0.978 0.531 0 0C81.581 16.79 68.958 15.479 58 10c0 4 3 7 6 9 -3 0-6-3-8-2 -3 2 3 4 2 6 -3 2-6-1-9-1 2 3 0 8 2 11 -2-1-4-3-4-2 -1 4-3 5-3 8 0 5 3 10 3 15 0-1.608-1.938-1.279-2.697-2.127 5.009 13.975 4.782 28.692 2.606 43.497 0.082 0.089 0.154 0.184 0.237 0.271 9.382-21.975 0.366-18.36 6.744-61.845 7.933-6.953 18.286-11.001 27.173-11.001 16.435 0 24.094 10.207 46.138 11.802 14.266 1.036 20.466-2.214 21.749 24.214 0.83 17.168-1.104 25.759 3.227 37.21 0.005-0.005 0.009-0.011 0.014-0.016C152.841 88.595 155 81.796 155 75 154 77 153 79 152 82z" fill="#0c080c" stroke-width="none" opacity="1"/>
            <path id="SvgjsPath3725" d="M159.263 71.488C158.954 72.145 157 72.343 157 73c0-3 3.516-5.243 2.924-10.264 0 0.396-3.158 2.95-3.475 3.346 -0.206 1 4.288-10.681 4.288-14.542C159.263 53.999 158 54 158 56c0-4-0.006-9.854-0.006-13.854 0 2-1.994 4.949-1.994 6.949 0.933-7.464-3.404-16.095-4.28-23.501 -0.511 1.795-1.479 3.889-0.72 5.406 -3-4-2-11-7-14 -1 2-1 4-2 6 -3-4-7-7-9-11 0 2 0 3 0 5 -5-4-12-6-15-12 0 2 0 5 0 7 -4-1-10.495-4.596-12.495-7.596C105.505 7.404 109 12 109 15c-8-4-14-10-22-14 0 2 2 4 1 6 -4-2-11.771-2-13.771-6 0 3 3.11 6 3.11 9 -9-1-11.009-3.822-19.242-7.596C57.097 4.404 56 7 55 9c-2-2-3-4-6-4 0 3 3 7 1 10 -1 1-5-3-5-2 -2 4 0 10-2 14 0 1-3-2-5-1 3.872 5.807 1.202 12.548 3.745 18.416C41.843 44.598 41.93 44.79 42 45c-0.096-0.193-0.17-0.389-0.255-0.584C40.452 41.988 36.93 41.79 36 39c0 7.303 4.157 13.774 5.645 20.932C42.15 60.233 42.404 60.788 42 62c-0.087-0.697-0.214-1.385-0.355-2.068C40.897 59.486 39.596 59.596 39 59c4.728 9.455 6.191 25.673 7.909 36.369 3.545-15.374 1.709-31.456-2.606-43.497C44.118 51.666 44 51.392 44 51c0.109 0.29 0.198 0.582 0.303 0.873C45.063 52.721 47 52.392 47 54c0-5-3-10-3-15 0-3 2-4 3-8 0-1 2 1 4 2 -2-3 0-8-2-11 3 0 6 3 9 1 1-2-5-4-2-6 2-1 5 2 8 2 -3-2-6-5-6-9 10.958 5.479 23.581 6.79 35.589 8.499C90.875 17.024 89.206 13.206 87 11c13 6 26 12 40 17 -3-2-7-4-9-7 10 5 24 6 30 15 0-3-1-5-2-8 5 6 8 14 5 21 2-1 3-2 4-4 1 7-2 13-2 20 0-2 2-3 3-5 -1 7-5 14-4 22 1-3 2-5 3-7 0 6.796-2.159 13.595-2.811 21.004 0.814-0.979 1.633-1.975 2.457-3.163C154.545 85.429 157.479 79.338 159.263 71.488z" fill="#1b141c" stroke-width="none" opacity="1"/>
            <path id="SvgjsPath3726" d="M93.119 18.235c-1.128 0.089-2.468 0.279-4.94-0.096 -6.698-0.927-28.617-1.793-29.81-8.654 1.055 3.353 7.405 4.299 12.204 5.198 0 0 3.382 0.651 8.723 1.251C89.291 17.101 87.179 17.888 93.119 18.235zM115.897 23.746C92 13.389 93.7 14.531 88.119 10.985c7.333 6.156 9.839 6.172 22.619 12.018 5.921 2.667 7.078 2.561 15.131 4.482C120.224 25.241 119.559 25.287 115.897 23.746zM118.619 20.735c9.914 8.153 22.008 6.125 29.75 15C142.164 25.918 128.518 26.908 118.619 20.735zM59.905 17.331c-2.668-0.805-3.997-0.43-5.286 0.404 4.225-1.989 8.651 2.923 13.75 1.5C66.006 19.523 59.905 17.53 59.905 17.331zM57.051 23.932c-2.328-0.734-5.203-1.979-7.151-1.927 -1.03 0.024-1.281 0.48-1.281 0.48 0.975-1.139 5.609 1.099 8.396 1.626 0.766 0.16 1.354 0.123 1.354 0.123S57.783 24.176 57.051 23.932zM45.652 35.678c0.687-1.892 1.461-3.751 1.256-5.482 -0.104-0.627-0.309-0.955-0.289-0.96 0.464 1.973-0.313 3.175-1.68 6.136 -3.015 6.453 0.924 11.484 2.43 18.364C46.86 45.866 43.166 42.389 45.652 35.678zM154.369 45.985c0.32 2.168 0.225 3.63-0.154 7.075 0 0-0.695 5.779-2.096 11.425C154.198 59.638 155.94 51.389 154.369 45.985zM155.869 61.485c-3.387 9.387-3.936 12.846-4.5 20.25C155.099 64.497 153.284 73.154 155.869 61.485z" fill="#2a232b" stroke-width="none" opacity="1"/>
            <path id="SvgjsPath3727" d="M114.869-1.765c-6.126 0.965-12.52 1.734-24-5.25C101.949-1.999 107.334-1.517 114.869-1.765zM128.401 0.19c-6.076-2.194-6.475-4.768-11.032-6.205 4.159 1.884 4.127 4.303 9.559 6.761 2.642 1.249 11.822 3.782 17.441 7.439C139.405 3.794 136.066 3.059 128.401 0.19zM60.619-2.015c11.593 0.241 13.441-2.719 26.75-4.25C75.403-6.414 74.136-3.561 60.619-2.015zM90.869-1.765c4.669 0.559 11.405 4.746 13.5 9.5C102.84 2.405 96.201-1.735 90.869-1.765zM116.869-0.265c4.652 2.475 6.308 7.699 12 8.75C123.284 6.637 122.178 1.803 116.869-0.265zM108.869 0.735c1.193 2.033 2.93 4.107 7.5 7C111.036 3.353 110.121 2.431 108.869 0.735zM132.119 5.485c5.115 0.627 10.451 5.663 11 11.25C143.375 11.229 138.428 5.581 132.119 5.485zM149.458 14.007c-2.307-2.946-4.339-3.642-5.339-4.022 1.428 0.741 2.997 1.725 4.866 4.386 0 0 3.437 4.57 4.884 9.614C152.871 17.907 149.458 14.007 149.458 14.007zM54.369-0.265c0.185-0.391 5.324 1.866 5.73 2.03 1.229 0.479 7.383 2.967 9.52 3.22C68.618 4.717 54.423-1.414 54.369-0.265zM45.869 5.985c0.682 0.896 1.458 2.263 2.01 3.245 0 0 0.296 0.523 0.571 1.059 0.27 0.537 0.51 1.086 0.51 1.086C49.634 12.912 49.955 13.861 50 15 50.252 12.019 47.702 7.872 45.869 5.985zM42.869 8.985c-2.517 6.149-2.489 9.708 0 16C41.306 18.681 40.986 15.697 42.869 8.985z" fill="#3a353a" stroke-width="none" opacity="1"/>
            <path id="SvgjsPath3728" d="M157.239 31.745c0.228-3.5 0.323-5.684 0.02-9.14 -1.138-10.129-7.217-15.136-16.529-20.59 -9.158-5.208-15.513-5.751-22.811-10.37 -9.334 9.042-21.935 0.184-25.37-1.52 -16.776-0.716-14.191 2.518-32.75 4.78 -6.844 0.773-9.67 1.72-9.67 1.72 -0.26 0.07-0.52 0.13-0.76 0.2 -0.2 1-0.381 1.616-0.6 3.68 -1.516 0.801-3.484 1.572-5.45 3.41 -4.048 3.536-5.212 17.195-10.83 19.39v0.01c-0.118 0.043-0.428 0.163-0.55 0.18 0.419 2.096 1.188 4.75 2.08 6.79 -1.594 1.959-4.17 4.807-6.48 5.8 0.546 1.98 3.313 10.751 5.32 15.14 -1.1 0-2.003-0.194-4.09-0.56 4.388 5.578 3.281 5.653 6.96 16.58 4.481 12.826 5.208 22.595 11.49 28.9 5.633-10.646 5.146-15.583 5.19-19.41 0.123-5.265-2.433-18.462 1.935-42.798 9.262-8.105 22.378-12.754 34.815-9.932 13.001 2.94 19.525 9.551 38.02 10.89 14.399 1.046 20.201-2.213 21.471 23.93 0.841 17.373-1.163 26.023 3.43 37.78 2.669-3.22 5.645-6.408 8.72-17.46C165.299 62.807 167.816 45.939 157.239 31.745zM161.02 70.726c-3.468 16.597-5.491 19.609-9.061 24.96 -2.882-8.88-2.093-17.47-1.8-26.59 1.486-39.246-8.424-34.825-22.86-35.92 -17.688-1.192-24.622-7.896-37.76-10.54 -11.972-2.45-25.25 0.755-36.35 11.16 -6.045 27.128 0.578 41.608-4.78 55.37 -1.162 2.943-0.429 3.694-1.28 5.84 -4.636-6.978-5.874-16.832-7.41-21.79 -4.784-12.176-4.632-16.171-9.84-21.97 1.271 0.277 2.91 0.457 4.21 0.24 -0.01-0.01-0.01-0.01-0.01-0.02 -0.332-1.001-4.524-12.47-5.75-15.33 2.387-1.152 4.729-3.746 6.35-5.83 -1.292-4.088 0.314 1.902-2.1-6.66 7.366-2.215 6.6-16.125 14.11-21.21 0.997-0.665 1.88-1.213 2.86-1.83 0.221-1.879 0.071-0.771 0.52-3.63 8.803-1.813 12.4-0.024 25.18-4.05 9.681-2.356 16.636-2.269 17.64-2.16 6.167 3.862 9.656 6.038 16.91 5.53 3.323-0.272 5.966-1.878 8.28-4.24 4.01 3.008 8.485 4.831 13.99 7.35 22.244 10.181 24.229 18.459 24.229 32.18 1.398 1.975 2.938 5.099 3.7 7.19C164.593 50.117 163.096 61.037 161.02 70.726z" fill="#000000" stroke-width="none" opacity="1"/>
          </g>
          <g id="svga-group-glasses-single-move" transform="matrix(1,0,0,1,0,0)">
            <g id="svga-group-glasses-single" transform="matrix(1,0,0,1,0,0)">
              <path id="SvgjsPath4012" d="M100,18.13L100,18.13L100,18.13L100,18.13z" fill="#26120b" stroke-width="none" opacity="1"/>
            </g>
          </g>
        </g>
      </g>
    </g>
    <rect id="SvgjsRect1057" width="200" height="15" x="0" y="185" fill="#ecf0f1" opacity="0.5" style="display: none;"/>
    <text id="SvgjsText1058" font-family="Roboto, Helvetica, Arial, sans-serif" font-size="10px" text-anchor="start" font-weight="400" anchor="start" fill="#333333" x="38.73286437988281" y="182.58649802207947" style="display: none;">
      <tspan id="SvgjsTspan1059" dy="13" x="38.73286437988281">Created on svgAvatars.com</tspan>
    </text>
  </g>
</svg>
